<svg width="18" height="17" viewBox="0 0 18 17" fill="none" xmlns="http://www.w3.org/2000/svg">
<path d="M6.12229 16C2.19914 16 1.14229 15.2392 1.01371 11.8333L6.12229 16ZM11.3063 16C15.2294 16 16.2863 15.2392 16.4149 11.8333L11.3063 16ZM11.3063 1C15.2294 1 16.2863 1.76083 16.4149 5.16667L11.3063 1ZM6.12229 1C2.19914 1 1.14229 1.76083 1.01371 5.16667L6.12229 1ZM1 8.5H16.4286H1Z" fill="#686565" fill-opacity="0.7"/>
<path d="M6.12229 16C2.19914 16 1.14229 15.2392 1.01371 11.8333M11.3063 16C15.2294 16 16.2863 15.2392 16.4149 11.8333M11.3063 1C15.2294 1 16.2863 1.76083 16.4149 5.16667M6.12229 1C2.19914 1 1.14229 1.76083 1.01371 5.16667M1 8.5H16.4286" stroke="#686565" stroke-opacity="0.7" stroke-width="2" stroke-linecap="round" stroke-linejoin="round"/>
</svg>
