<svg width="50" height="50" viewBox="0 0 50 50" fill="none" xmlns="http://www.w3.org/2000/svg">
<circle cx="25" cy="25" r="25" fill="#686565" fill-opacity="0.7"/>
<path d="M17.7071 12.2929C17.3166 11.9024 16.6834 11.9024 16.2929 12.2929L9.92893 18.6569C9.53841 19.0474 9.53841 19.6805 9.92893 20.0711C10.3195 20.4616 10.9526 20.4616 11.3431 20.0711L17 14.4142L22.6569 20.0711C23.0474 20.4616 23.6805 20.4616 24.0711 20.0711C24.4616 19.6805 24.4616 19.0474 24.0711 18.6569L17.7071 12.2929ZM18 38V13H16V38H18Z" fill="#F4EEC7"/>
<path d="M32.2929 39.7071C32.6834 40.0976 33.3166 40.0976 33.7071 39.7071L40.0711 33.3431C40.4616 32.9526 40.4616 32.3195 40.0711 31.9289C39.6805 31.5384 39.0474 31.5384 38.6569 31.9289L33 37.5858L27.3431 31.9289C26.9526 31.5384 26.3195 31.5384 25.9289 31.9289C25.5384 32.3195 25.5384 32.9526 25.9289 33.3431L32.2929 39.7071ZM32 12V39H34V12H32Z" fill="#F4EEC7"/>
</svg>
