<svg width="33" height="36" viewBox="0 0 33 36" fill="none" xmlns="http://www.w3.org/2000/svg">
<path d="M0 0.739731H33V35.2603H0V0.739731Z" fill="white" fill-opacity="0.01"/>
<path d="M16.5 15.1233C19.1579 15.1233 21.3125 12.8694 21.3125 10.089C21.3125 7.3087 19.1579 5.05479 16.5 5.05479C13.8421 5.05479 11.6875 7.3087 11.6875 10.089C11.6875 12.8694 13.8421 15.1233 16.5 15.1233Z" stroke="#FE9801" stroke-width="2" stroke-linecap="round" stroke-linejoin="round"/>
<path d="M4.12524 30.0822V30.9452H28.8752V30.0822C28.8752 26.86 28.8752 25.2489 28.2758 24.0181C27.7485 22.9356 26.9071 22.0554 25.8722 21.5038C24.6957 20.8767 23.1555 20.8767 20.0752 20.8767H12.9252C9.84497 20.8767 8.30483 20.8767 7.12831 21.5038C6.09341 22.0554 5.25201 22.9356 4.72471 24.0181C4.12524 25.2489 4.12524 26.86 4.12524 30.0822Z" stroke="#FE9801" stroke-width="2" stroke-linecap="round" stroke-linejoin="round"/>
</svg>
