<svg width="35" height="34" viewBox="0 0 35 34" fill="none" xmlns="http://www.w3.org/2000/svg">
<path d="M0 0H35V34H0V0Z" fill="white" fill-opacity="0.01"/>
<path d="M10.9377 8.49999L13.1252 4.24999H21.8752L24.0627 8.49999H10.9377Z" stroke="#FE9801" stroke-width="2" stroke-linejoin="round"/>
<path d="M29.896 8.50001H5.10431C3.89619 8.50001 2.91681 9.4514 2.91681 10.625V27.625C2.91681 28.7986 3.89619 29.75 5.10431 29.75H29.896C31.1041 29.75 32.0835 28.7986 32.0835 27.625V10.625C32.0835 9.4514 31.1041 8.50001 29.896 8.50001Z" stroke="#FE9801" stroke-width="2" stroke-linejoin="round"/>
<path d="M17.4999 24.7917C20.7216 24.7917 23.3332 22.2546 23.3332 19.125C23.3332 15.9954 20.7216 13.4583 17.4999 13.4583C14.2782 13.4583 11.6666 15.9954 11.6666 19.125C11.6666 22.2546 14.2782 24.7917 17.4999 24.7917Z" stroke="#FE9801" stroke-width="2" stroke-linejoin="round"/>
</svg>
