<svg width="32" height="32" viewBox="0 0 32 32" fill="none" xmlns="http://www.w3.org/2000/svg">
<path d="M0 0.739731H32V31.2603H0V0.739731Z" fill="#4F4A45"/>
<path d="M3.87897 5.01724V9.64155H8.72747" fill="#4F4A45"/>
<path d="M3.87897 5.01724V9.64155H8.72747" stroke="white" stroke-width="2" stroke-linecap="round" stroke-linejoin="round"/>
<path d="M2.66656 16C2.66656 23.0233 8.6361 28.7169 15.9999 28.7169C23.3637 28.7169 29.3332 23.0233 29.3332 16C29.3332 8.97664 23.3637 3.2831 15.9999 3.2831C11.0652 3.2831 6.75663 5.8399 4.45108 9.64033" fill="#4F4A45"/>
<path d="M2.66656 16C2.66656 23.0233 8.6361 28.7169 15.9999 28.7169C23.3637 28.7169 29.3332 23.0233 29.3332 16C29.3332 8.97664 23.3637 3.2831 15.9999 3.2831C11.0652 3.2831 6.75663 5.8399 4.45108 9.64033" stroke="white" stroke-width="2" stroke-linecap="round" stroke-linejoin="round"/>
<path d="M16.0035 8.36986L16.0027 16.0056L21.6556 21.3972" fill="#4F4A45"/>
<path d="M16.0035 8.36986L16.0027 16.0056L21.6556 21.3972" stroke="white" stroke-width="2" stroke-linecap="round" stroke-linejoin="round"/>
</svg>
