<svg width="307" height="171" viewBox="0 0 307 171" fill="none" xmlns="http://www.w3.org/2000/svg">
<g filter="url(#filter0_d_96_315)">
<ellipse cx="153.5" rx="133.5" ry="131" fill="#FE9801"/>
</g>
<g filter="url(#filter1_d_96_315)">
<path d="M104.107 88.424C104.107 85.832 94.6991 82.216 94.6991 75.976C94.6991 68.328 101.995 64.2 107.979 64.2C112.459 64.2 115.371 68.488 115.371 72.616C115.371 76.712 112.651 79.88 109.899 79.88C108.075 79.88 106.795 78.408 106.795 78.408C107.339 78.184 111.019 74.888 111.019 69.672C111.019 68.136 110.795 66.888 109.163 66.888C106.891 66.888 101.291 71.08 101.291 76.264C101.291 80.168 108.011 82.376 108.011 87.656C108.011 92.328 103.723 96.648 96.8431 96.648C91.1471 96.648 86.7311 93.96 86.7311 89.48C86.7311 84.008 91.3711 83.656 91.9791 84.488C91.7231 85 91.5631 85.608 91.5631 86.344C91.5631 89.768 95.1791 92.04 98.9231 92.04C102.667 92.04 104.107 89.896 104.107 88.424ZM127.42 82.472C128.028 81.384 129.02 81.704 128.476 82.76C126.3 86.952 121.02 87.56 119.42 83.944C118.236 81.224 120.956 80.296 122.012 81.64C122.268 80.36 122.012 79.4 120.924 79.4C118.044 79.4 114.268 87.016 117.5 87.016C118.204 87.016 118.94 86.568 119.612 85.96C120.476 86.312 121.596 86.984 122.14 88.264C120.252 91.24 117.468 93.256 114.812 93.256C111.804 93.256 110.876 90.6 110.876 88.584C110.876 83.336 116.124 76.68 121.404 76.68C123.868 76.68 124.38 79.048 124.38 80.84C124.38 81.992 124.188 83.144 123.9 84.232C125.02 84.616 126.428 84.104 127.42 82.472ZM142.43 82.472C143.038 81.384 143.934 81.96 143.454 82.952C141.886 86.312 139.07 93.256 135.358 93.256C132.862 93.256 132.67 90.088 132.67 88.712C132.702 88.2 132.798 87.432 132.862 86.92C132.862 86.92 132.35 88.136 132.03 89.512C131.23 90.952 129.694 93 127.55 93C126.462 93 125.118 92.232 125.118 89.8C125.118 84.744 130.462 77.032 131.838 77.032C132.286 77.032 132.51 77.288 132.51 77.8C132.51 78.632 130.078 82.568 130.078 85.192C130.078 85.896 130.302 86.472 130.942 86.472C132.99 86.472 136.51 77.032 138.27 77.032C138.846 77.032 139.102 77.352 139.102 77.896C139.102 78.472 136.798 83.592 136.798 86.088C136.798 87.304 137.342 87.592 137.95 87.592C139.198 87.592 140.606 85.736 142.43 82.472ZM150.422 76.104C150.422 77.992 148.278 79.912 147.382 80.648C147.286 79.944 147.382 79.208 147.382 79.208C146.934 80.008 146.934 81.256 146.934 81.256C146.934 82.92 148.118 84.904 148.118 87.688C148.118 91.016 145.27 93.288 142.07 93.288C135.894 93.288 137.846 85.704 140.15 85.704C140.598 85.704 139.446 87.688 141.974 87.688C145.366 87.688 143.574 82.664 143.574 82.664C143.574 82.664 143.574 82.664 143.446 82.952C142.966 83.784 142.006 83.176 142.422 82.472C142.838 81.8 143.83 80.008 143.894 79.752C144.246 78.504 145.558 74.76 148.886 74.76C150.038 74.76 150.422 75.464 150.422 76.104ZM183.293 66.984C190.717 66.984 190.269 75.752 182.653 75.752C180.157 75.752 177.469 75.304 174.749 74.888C174.141 74.792 173.533 74.696 172.925 74.6C171.517 74.408 170.141 74.216 168.765 74.152C168.765 74.152 171.165 74.568 172.957 75.432C169.437 78.92 166.781 83.72 166.397 87.88C166.141 91.208 167.997 92.616 170.365 92.616C172.829 92.616 174.717 91.88 175.741 90.28C178.397 90.28 177.245 99.784 167.613 99.784C161.821 99.784 159.261 94.92 159.773 89.192C160.189 84.104 163.293 78.44 167.773 74.12C167.549 74.12 167.325 74.088 167.133 74.088C164.061 74.088 162.781 75.016 162.205 75.72C159.869 75.72 159.645 69.608 166.301 69.608C168.061 69.608 170.013 70.088 171.997 70.696C175.453 68.424 179.357 66.984 183.293 66.984ZM182.269 73.032C187.549 73.032 186.205 70.504 182.781 70.536C180.925 70.536 178.973 71.176 177.117 72.232C178.845 72.712 180.573 73.032 182.269 73.032ZM209.072 82.472C209.68 81.352 210.672 81.704 210.128 82.76C207.952 86.952 202.672 87.56 201.072 83.944C199.888 81.224 202.64 80.296 203.664 81.64C203.952 80.36 203.664 79.368 202.576 79.368C199.696 79.368 195.92 86.984 199.152 86.984C199.856 86.984 200.592 86.6 201.264 85.96C202.128 86.312 203.248 86.984 203.824 88.264C201.936 91.24 199.12 93.256 196.464 93.256C193.456 93.256 192.528 90.6 192.528 88.584C192.528 86.056 193.744 83.208 195.6 80.904C195.568 80.84 195.536 80.744 195.504 80.648C195.056 78.632 193.008 78.024 191.376 79.432C191.472 79.912 191.504 80.392 191.504 80.84C191.504 87.272 186.48 93.256 181.936 93.256C178.928 93.256 178 90.6 178 88.584C178 83.336 183.248 76.68 188.528 76.68C189.808 76.68 190.576 77.32 190.992 78.184C193.328 76.136 196.656 76.136 198.128 78.472C199.664 77.352 201.36 76.68 203.056 76.68C205.552 76.68 206.032 79.048 206.032 80.84C206.032 81.992 205.872 83.144 205.584 84.232C206.672 84.584 208.08 84.104 209.072 82.472ZM184.624 86.984C187.696 86.984 191.088 79.368 188.048 79.368C185.168 79.368 181.392 86.984 184.624 86.984ZM221.334 90.088C221.686 89.992 221.782 90.248 221.686 90.44C221.046 92.008 219.894 93.48 217.846 93.48C214.742 93.48 213.302 88.296 212.79 84.968C212.214 87.08 211.83 88.968 211.83 90.28C211.83 91.112 212.022 91.624 212.214 91.912C212.342 92.136 212.342 92.328 212.15 92.456C211.83 92.712 211.254 93 210.422 93C208.886 93 207.35 91.624 207.35 88.904C207.35 82.888 216.31 67.72 217.75 67.72C218.358 67.72 218.614 68.008 218.614 68.584C218.614 68.968 215.702 75.72 213.686 81.928C215.702 81.032 218.23 78.376 218.23 76.744C218.23 76.744 221.078 76.04 221.078 78.632C221.078 81.64 216.31 84.04 213.014 84.392V84.456C213.366 84.488 214.23 84.584 215.222 84.488C216.79 89.096 219.19 90.184 220.374 90.184C220.758 90.184 221.078 90.12 221.334 90.088Z" fill="#1E1E1E"/>
</g>
<defs>
<filter id="filter0_d_96_315" x="0" y="-131" width="307" height="302" filterUnits="userSpaceOnUse" color-interpolation-filters="sRGB">
<feFlood flood-opacity="0" result="BackgroundImageFix"/>
<feColorMatrix in="SourceAlpha" type="matrix" values="0 0 0 0 0 0 0 0 0 0 0 0 0 0 0 0 0 0 127 0" result="hardAlpha"/>
<feOffset dy="20"/>
<feGaussianBlur stdDeviation="10"/>
<feComposite in2="hardAlpha" operator="out"/>
<feColorMatrix type="matrix" values="0 0 0 0 0.543333 0 0 0 0 0.472247 0 0 0 0 0.472247 0 0 0 0.25 0"/>
<feBlend mode="normal" in2="BackgroundImageFix" result="effect1_dropShadow_96_315"/>
<feBlend mode="normal" in="SourceGraphic" in2="effect1_dropShadow_96_315" result="shape"/>
</filter>
<filter id="filter1_d_96_315" x="66.7312" y="64.2" width="175.051" height="75.584" filterUnits="userSpaceOnUse" color-interpolation-filters="sRGB">
<feFlood flood-opacity="0" result="BackgroundImageFix"/>
<feColorMatrix in="SourceAlpha" type="matrix" values="0 0 0 0 0 0 0 0 0 0 0 0 0 0 0 0 0 0 127 0" result="hardAlpha"/>
<feOffset dy="20"/>
<feGaussianBlur stdDeviation="10"/>
<feComposite in2="hardAlpha" operator="out"/>
<feColorMatrix type="matrix" values="0 0 0 0 0.406615 0 0 0 0 0.394416 0 0 0 0 0.394416 0 0 0 0.14 0"/>
<feBlend mode="normal" in2="BackgroundImageFix" result="effect1_dropShadow_96_315"/>
<feBlend mode="normal" in="SourceGraphic" in2="effect1_dropShadow_96_315" result="shape"/>
</filter>
</defs>
</svg>
