<svg width="32" height="27" viewBox="0 0 32 27" fill="none" xmlns="http://www.w3.org/2000/svg">
<path d="M23.2783 0.776367C25.107 0.776367 26.7225 1.47807 27.958 2.60645L28.2002 2.83789C29.4689 4.1453 30.2617 5.85516 30.2617 7.75977C30.2617 9.71034 29.4632 11.4186 28.2002 12.6816L15.5186 25.3623L2.83789 12.6816C1.56911 11.3743 0.776432 9.66438 0.776367 7.75977C0.776367 5.8091 1.57385 4.09998 2.83691 2.83691C4.14432 1.56821 5.85516 0.776367 7.75977 0.776367C9.70619 0.776431 11.4106 1.57172 12.6729 2.83008H12.6738C13.9468 4.13846 14.7432 5.85147 14.7432 7.75977H16.2949L16.3047 7.39648C16.3969 5.60058 17.1695 4.028 18.3496 2.84473C19.6579 1.57201 21.3703 0.776443 23.2783 0.776367Z" stroke="#FE9801" stroke-width="1.55191"/>
</svg>
