<svg width="31" height="30" viewBox="0 0 31 30" fill="none" xmlns="http://www.w3.org/2000/svg">
<path d="M30.2849 12.2029L16.5433 0.571606C16.0966 0.193479 15.5083 -0.0111574 14.9014 0.000469665C14.2946 0.0120967 13.716 0.239087 13.2868 0.633995L0.648578 12.2617L0 12.8584V30H12.1786V19.3046H18.8214V30H31V12.8083L30.2849 12.2029ZM14.9491 2.03726C14.9686 2.03726 14.9565 2.04114 14.9482 2.04872C14.9395 2.04114 14.9295 2.03726 14.9491 2.03726ZM28.7857 27.9628H21.0357V19.3046C21.0357 18.7643 20.8024 18.2461 20.3872 17.864C19.9719 17.482 19.4087 17.2674 18.8214 17.2674H12.1786C11.5913 17.2674 11.0281 17.482 10.6128 17.864C10.1976 18.2461 9.96428 18.7643 9.96428 19.3046V27.9628H2.21429V13.7022L14.9491 2.0745C14.95 2.07374 14.95 2.07304 14.9507 2.07228L28.7857 13.7022V27.9628Z" fill="white"/>
</svg>
