<svg width="145" height="58" viewBox="0 0 145 58" fill="none" xmlns="http://www.w3.org/2000/svg">
<rect x="0.95752" width="143.213" height="58" rx="29" fill="#FE9801"/>
<path d="M52.6184 35V23.48H54.8264L59.8344 31.16V23.48H62.0424V35H59.8344L54.8264 27.32V35H52.6184ZM69.8907 35.24C69.0054 35.24 68.224 35.0507 67.5467 34.672C66.8747 34.288 66.3467 33.7627 65.9627 33.096C65.584 32.424 65.3947 31.656 65.3947 30.792C65.3947 29.848 65.5814 29.0267 65.9547 28.328C66.328 27.6293 66.8427 27.088 67.4987 26.704C68.1547 26.3147 68.9094 26.12 69.7627 26.12C70.6694 26.12 71.44 26.3333 72.0747 26.76C72.7094 27.1867 73.1787 27.7867 73.4827 28.56C73.7867 29.3333 73.8934 30.2427 73.8027 31.288H71.6507V30.488C71.6507 29.608 71.5094 28.976 71.2267 28.592C70.9494 28.2027 70.4934 28.008 69.8587 28.008C69.1174 28.008 68.5707 28.2347 68.2187 28.688C67.872 29.136 67.6987 29.8 67.6987 30.68C67.6987 31.4853 67.872 32.1093 68.2187 32.552C68.5707 32.9893 69.0854 33.208 69.7627 33.208C70.1894 33.208 70.5547 33.1147 70.8587 32.928C71.1627 32.7413 71.3947 32.472 71.5547 32.12L73.7307 32.744C73.4054 33.5333 72.8907 34.1467 72.1867 34.584C71.488 35.0213 70.7227 35.24 69.8907 35.24ZM67.0267 31.288V29.672H72.7547V31.288H67.0267ZM75.9366 35L79.0246 30.632L76.0006 26.36H78.5606L80.2886 28.92L81.9846 26.36H84.5446L81.5206 30.632L84.6246 35H82.0646L80.2886 32.344L78.4966 35H75.9366ZM92.6962 35C92.0989 35.112 91.5122 35.16 90.9362 35.144C90.3655 35.1333 89.8535 35.0347 89.4002 34.848C88.9522 34.656 88.6109 34.3493 88.3762 33.928C88.1629 33.5333 88.0509 33.1333 88.0402 32.728C88.0295 32.3173 88.0242 31.8533 88.0242 31.336V23.96H90.2002V31.208C90.2002 31.544 90.2029 31.848 90.2082 32.12C90.2189 32.3867 90.2749 32.6 90.3762 32.76C90.5682 33.064 90.8749 33.2293 91.2962 33.256C91.7175 33.2827 92.1842 33.2613 92.6962 33.192V35ZM86.5522 28.04V26.36H92.6962V28.04H86.5522Z" fill="white" fill-opacity="0.85"/>
</svg>
