<svg width="145" height="58" viewBox="0 0 145 58" fill="none" xmlns="http://www.w3.org/2000/svg">
<rect x="0.95752" width="143.213" height="58" rx="29" fill="white"/>
<path d="M41.9716 35V23.48H46.8356C46.9476 23.48 47.0969 23.4853 47.2836 23.496C47.4756 23.5013 47.6462 23.5173 47.7956 23.544C48.4836 23.6507 49.0462 23.8773 49.4836 24.224C49.9262 24.5707 50.2516 25.008 50.4596 25.536C50.6676 26.0587 50.7716 26.6427 50.7716 27.288C50.7716 28.2533 50.5316 29.08 50.0516 29.768C49.5716 30.4507 48.8196 30.872 47.7956 31.032L46.8356 31.096H44.1476V35H41.9716ZM48.4676 35L46.1956 30.312L48.4356 29.88L50.9316 35H48.4676ZM44.1476 29.064H46.7396C46.8516 29.064 46.9742 29.0587 47.1076 29.048C47.2409 29.0373 47.3636 29.016 47.4756 28.984C47.7689 28.904 47.9956 28.7707 48.1556 28.584C48.3156 28.392 48.4249 28.1813 48.4836 27.952C48.5476 27.7173 48.5796 27.496 48.5796 27.288C48.5796 27.08 48.5476 26.8613 48.4836 26.632C48.4249 26.3973 48.3156 26.1867 48.1556 26C47.9956 25.808 47.7689 25.672 47.4756 25.592C47.3636 25.56 47.2409 25.5387 47.1076 25.528C46.9742 25.5173 46.8516 25.512 46.7396 25.512H44.1476V29.064ZM58.3063 35.24C57.421 35.24 56.6396 35.0507 55.9623 34.672C55.2903 34.288 54.7623 33.7627 54.3783 33.096C53.9996 32.424 53.8103 31.656 53.8103 30.792C53.8103 29.848 53.997 29.0267 54.3703 28.328C54.7436 27.6293 55.2583 27.088 55.9143 26.704C56.5703 26.3147 57.325 26.12 58.1783 26.12C59.085 26.12 59.8556 26.3333 60.4903 26.76C61.125 27.1867 61.5943 27.7867 61.8983 28.56C62.2023 29.3333 62.309 30.2427 62.2183 31.288H60.0663V30.488C60.0663 29.608 59.925 28.976 59.6423 28.592C59.365 28.2027 58.909 28.008 58.2743 28.008C57.533 28.008 56.9863 28.2347 56.6343 28.688C56.2876 29.136 56.1143 29.8 56.1143 30.68C56.1143 31.4853 56.2876 32.1093 56.6343 32.552C56.9863 32.9893 57.501 33.208 58.1783 33.208C58.605 33.208 58.9703 33.1147 59.2743 32.928C59.5783 32.7413 59.8103 32.472 59.9703 32.12L62.1463 32.744C61.821 33.5333 61.3063 34.1467 60.6023 34.584C59.9036 35.0213 59.1383 35.24 58.3063 35.24ZM55.4423 31.288V29.672H61.1703V31.288H55.4423ZM70.8087 35C70.2114 35.112 69.6247 35.16 69.0487 35.144C68.478 35.1333 67.966 35.0347 67.5127 34.848C67.0647 34.656 66.7234 34.3493 66.4887 33.928C66.2754 33.5333 66.1634 33.1333 66.1527 32.728C66.142 32.3173 66.1367 31.8533 66.1367 31.336V23.96H68.3127V31.208C68.3127 31.544 68.3154 31.848 68.3207 32.12C68.3314 32.3867 68.3874 32.6 68.4887 32.76C68.6807 33.064 68.9874 33.2293 69.4087 33.256C69.83 33.2827 70.2967 33.2613 70.8087 33.192V35ZM64.6647 28.04V26.36H70.8087V28.04H64.6647ZM76.7341 35.24C76.1154 35.24 75.5901 35.1227 75.1581 34.888C74.7314 34.648 74.4061 34.3307 74.1821 33.936C73.9634 33.536 73.8541 33.096 73.8541 32.616C73.8541 32.216 73.9154 31.8507 74.0381 31.52C74.1607 31.1893 74.3581 30.8987 74.6301 30.648C74.9074 30.392 75.2781 30.1787 75.7421 30.008C76.0621 29.8907 76.4434 29.7867 76.8861 29.696C77.3287 29.6053 77.8301 29.52 78.3901 29.44C78.9501 29.3547 79.5661 29.2613 80.2381 29.16L79.4541 29.592C79.4541 29.08 79.3314 28.704 79.0861 28.464C78.8407 28.224 78.4301 28.104 77.8541 28.104C77.5341 28.104 77.2007 28.1813 76.8541 28.336C76.5074 28.4907 76.2647 28.7653 76.1261 29.16L74.1581 28.536C74.3767 27.8213 74.7874 27.24 75.3901 26.792C75.9927 26.344 76.8141 26.12 77.8541 26.12C78.6167 26.12 79.2941 26.2373 79.8861 26.472C80.4781 26.7067 80.9261 27.112 81.2301 27.688C81.4007 28.008 81.5021 28.328 81.5341 28.648C81.5661 28.968 81.5821 29.3253 81.5821 29.72V35H79.6781V33.224L79.9501 33.592C79.5287 34.1733 79.0727 34.5947 78.5821 34.856C78.0967 35.112 77.4807 35.24 76.7341 35.24ZM77.1981 33.528C77.5981 33.528 77.9341 33.4587 78.2061 33.32C78.4834 33.176 78.7021 33.0133 78.8621 32.832C79.0274 32.6507 79.1394 32.4987 79.1981 32.376C79.3101 32.1413 79.3741 31.8693 79.3901 31.56C79.4114 31.2453 79.4221 30.984 79.4221 30.776L80.0621 30.936C79.4167 31.0427 78.8941 31.1333 78.4941 31.208C78.0941 31.2773 77.7714 31.3413 77.5261 31.4C77.2807 31.4587 77.0647 31.5227 76.8781 31.592C76.6647 31.6773 76.4914 31.7707 76.3581 31.872C76.2301 31.968 76.1341 32.0747 76.0701 32.192C76.0114 32.3093 75.9821 32.44 75.9821 32.584C75.9821 32.7813 76.0301 32.952 76.1261 33.096C76.2274 33.2347 76.3687 33.3413 76.5501 33.416C76.7314 33.4907 76.9474 33.528 77.1981 33.528ZM85.2462 35L85.2622 23.48H87.4702V30.52L90.3982 26.36H93.0862L89.9662 30.68L93.2942 35H90.4622L87.4702 30.84V35H85.2462ZM99.5501 35.24C98.6647 35.24 97.8834 35.0507 97.2061 34.672C96.5341 34.288 96.0061 33.7627 95.6221 33.096C95.2434 32.424 95.0541 31.656 95.0541 30.792C95.0541 29.848 95.2407 29.0267 95.6141 28.328C95.9874 27.6293 96.5021 27.088 97.1581 26.704C97.8141 26.3147 98.5687 26.12 99.4221 26.12C100.329 26.12 101.099 26.3333 101.734 26.76C102.369 27.1867 102.838 27.7867 103.142 28.56C103.446 29.3333 103.553 30.2427 103.462 31.288H101.31V30.488C101.31 29.608 101.169 28.976 100.886 28.592C100.609 28.2027 100.153 28.008 99.5181 28.008C98.7767 28.008 98.2301 28.2347 97.8781 28.688C97.5314 29.136 97.3581 29.8 97.3581 30.68C97.3581 31.4853 97.5314 32.1093 97.8781 32.552C98.2301 32.9893 98.7447 33.208 99.4221 33.208C99.8487 33.208 100.214 33.1147 100.518 32.928C100.822 32.7413 101.054 32.472 101.214 32.12L103.39 32.744C103.065 33.5333 102.55 34.1467 101.846 34.584C101.147 35.0213 100.382 35.24 99.5501 35.24ZM96.6861 31.288V29.672H102.414V31.288H96.6861Z" fill="#FE9801"/>
</svg>
