<svg width="302" height="112" viewBox="0 0 302 112" fill="none" xmlns="http://www.w3.org/2000/svg">
<path d="M233.43 45.802C233.7 45.5565 234.054 45.3511 234.234 45.031C234.339 44.845 234.473 44.6706 234.585 44.4896C234.727 44.2609 234.687 43.9631 234.835 43.735C235.059 43.3888 235.114 42.8623 235.146 42.462C235.158 42.3124 235.164 42.0815 235.205 41.937C235.223 41.8753 235.261 42.4026 235.261 42.4915C235.261 42.7833 235.156 43.0415 235.084 43.3216C234.997 43.6587 234.805 43.9041 234.703 44.2206C234.535 44.7444 234.19 44.9758 233.762 45.2935C233.561 45.4426 232.743 45.9191 233.279 45.3624C233.596 45.034 233.863 44.667 234.08 44.2665C234.222 44.0041 234.433 43.8595 234.493 43.5578" stroke="#1E1E1E" stroke-width="3" stroke-linecap="round"/>
<path d="M235.438 41.1955C235.438 41.4112 235.384 41.6179 235.379 41.832C235.377 41.9508 235.421 42.1482 235.366 42.2585C235.299 42.3931 235.213 42.415 235.202 42.5866C235.198 42.6488 235.143 42.8261 235.143 42.7638C235.143 42.3453 235.146 41.9165 235.071 41.5039C234.979 40.9978 234.969 41.8562 234.966 41.9764C234.947 42.8484 234.387 43.5819 234.139 44.3255" stroke="#1E1E1E" stroke-width="3" stroke-linecap="round"/>
<path d="M235.852 48.7549C236.328 47.9874 236.907 47.3033 237.341 46.5041C238.26 44.8146 238.995 43.0264 239.868 41.3136" stroke="#1E1E1E" stroke-width="3" stroke-linecap="round"/>
<path d="M235.852 46.4516C236.068 46.1916 236.168 45.8033 236.324 45.5067C236.605 44.9729 236.955 44.4838 237.217 43.9384C237.648 43.0372 238.066 42.1173 238.45 41.1955" stroke="#1E1E1E" stroke-width="3" stroke-linecap="round"/>
<g filter="url(#filter0_d_872_478)">
<path d="M51.183 48.848C51.183 43.664 32.367 36.432 32.367 23.952C32.367 8.656 46.959 0.399998 58.927 0.399998C67.887 0.399998 73.711 8.976 73.711 17.232C73.711 25.424 68.271 31.76 62.767 31.76C59.119 31.76 56.559 28.816 56.559 28.816C57.647 28.368 65.007 21.776 65.007 11.344C65.007 8.272 64.559 5.776 61.295 5.776C56.751 5.776 45.551 14.16 45.551 24.528C45.551 32.336 58.991 36.752 58.991 47.312C58.991 56.656 50.415 65.296 36.655 65.296C25.263 65.296 16.431 59.92 16.431 50.96C16.431 40.016 25.711 39.312 26.927 40.976C26.415 42 26.095 43.216 26.095 44.688C26.095 51.536 33.327 56.08 40.815 56.08C48.303 56.08 51.183 51.792 51.183 48.848ZM97.809 36.944C99.025 34.768 101.009 35.408 99.921 37.52C95.569 45.904 85.009 47.12 81.809 39.888C79.441 34.448 84.881 32.592 86.993 35.28C87.505 32.72 86.993 30.8 84.817 30.8C79.057 30.8 71.505 46.032 77.969 46.032C79.377 46.032 80.849 45.136 82.193 43.92C83.921 44.624 86.161 45.968 87.249 48.528C83.473 54.48 77.905 58.512 72.593 58.512C66.577 58.512 64.721 53.2 64.721 49.168C64.721 38.672 75.217 25.36 85.777 25.36C90.705 25.36 91.729 30.096 91.729 33.68C91.729 35.984 91.345 38.288 90.769 40.464C93.009 41.232 95.825 40.208 97.809 36.944ZM127.829 36.944C129.045 34.768 130.837 35.92 129.877 37.904C126.741 44.624 121.109 58.512 113.685 58.512C108.693 58.512 108.309 52.176 108.309 49.424C108.373 48.4 108.565 46.864 108.693 45.84C108.693 45.84 107.669 48.272 107.029 51.024C105.429 53.904 102.357 58 98.0685 58C95.8925 58 93.2045 56.464 93.2045 51.6C93.2045 41.488 103.893 26.064 106.645 26.064C107.541 26.064 107.989 26.576 107.989 27.6C107.989 29.264 103.125 37.136 103.125 42.384C103.125 43.792 103.573 44.944 104.853 44.944C108.949 44.944 115.989 26.064 119.509 26.064C120.661 26.064 121.173 26.704 121.173 27.792C121.173 28.944 116.565 39.184 116.565 44.176C116.565 46.608 117.653 47.184 118.869 47.184C121.365 47.184 124.181 43.472 127.829 36.944ZM143.812 24.208C143.812 27.984 139.525 31.824 137.733 33.296C137.541 31.888 137.733 30.416 137.733 30.416C136.837 32.016 136.837 34.512 136.837 34.512C136.837 37.84 139.205 41.808 139.205 47.376C139.205 54.032 133.509 58.576 127.108 58.576C114.756 58.576 118.66 43.408 123.268 43.408C124.164 43.408 121.86 47.376 126.916 47.376C133.701 47.376 130.117 37.328 130.117 37.328C130.117 37.328 130.117 37.328 129.861 37.904C128.901 39.568 126.98 38.352 127.812 36.944C128.645 35.6 130.629 32.016 130.757 31.504C131.461 29.008 134.085 21.52 140.741 21.52C143.045 21.52 143.812 22.928 143.812 24.208ZM196.618 5.968C211.466 5.968 210.57 23.504 195.338 23.504C190.346 23.504 184.97 22.608 179.53 21.776C178.314 21.584 177.098 21.392 175.882 21.2C173.066 20.816 170.314 20.432 167.562 20.304C167.562 20.304 172.362 21.136 175.946 22.864C168.906 29.84 163.594 39.44 162.826 47.76C162.314 54.416 166.026 57.232 170.762 57.232C175.69 57.232 179.466 55.76 181.514 52.56C186.826 52.56 184.522 71.568 165.258 71.568C153.673 71.568 148.553 61.84 149.577 50.384C150.409 40.208 156.617 28.88 165.578 20.24C165.13 20.24 164.682 20.176 164.298 20.176C158.154 20.176 155.593 22.032 154.441 23.44C149.769 23.44 149.321 11.216 162.634 11.216C166.154 11.216 170.058 12.176 174.026 13.392C180.938 8.848 188.746 5.968 196.618 5.968ZM194.569 18.064C205.13 18.064 202.442 13.008 195.594 13.072C191.882 13.072 187.978 14.352 184.266 16.464C187.722 17.424 191.178 18.064 194.569 18.064ZM248.176 36.944C249.392 34.704 251.376 35.408 250.288 37.52C245.936 45.904 235.376 47.12 232.176 39.888C229.808 34.448 235.312 32.592 237.36 35.28C237.936 32.72 237.36 30.736 235.184 30.736C229.424 30.736 221.872 45.968 228.336 45.968C229.744 45.968 231.216 45.2 232.56 43.92C234.288 44.624 236.528 45.968 237.68 48.528C233.904 54.48 228.272 58.512 222.96 58.512C216.944 58.512 215.088 53.2 215.088 49.168C215.088 44.112 217.52 38.416 221.232 33.808C221.168 33.68 221.104 33.488 221.04 33.296C220.144 29.264 216.048 28.048 212.784 30.864C212.976 31.824 213.04 32.784 213.04 33.68C213.04 46.544 202.992 58.512 193.904 58.512C187.888 58.512 186.032 53.2 186.032 49.168C186.032 38.672 196.528 25.36 207.088 25.36C209.648 25.36 211.184 26.64 212.016 28.368C216.688 24.272 223.344 24.272 226.288 28.944C229.36 26.704 232.752 25.36 236.144 25.36C241.136 25.36 242.096 30.096 242.096 33.68C242.096 35.984 241.776 38.288 241.2 40.464C243.376 41.168 246.192 40.208 248.176 36.944ZM199.28 45.968C205.424 45.968 212.208 30.736 206.128 30.736C200.368 30.736 192.816 45.968 199.28 45.968ZM272.7 52.176C273.404 51.984 273.596 52.496 273.404 52.88C272.124 56.016 269.82 58.96 265.724 58.96C259.516 58.96 256.635 48.592 255.612 41.936C254.46 46.16 253.692 49.936 253.692 52.56C253.692 54.224 254.076 55.248 254.46 55.824C254.716 56.272 254.716 56.656 254.332 56.912C253.692 57.424 252.54 58 250.876 58C247.803 58 244.731 55.248 244.731 49.808C244.731 37.776 262.652 7.44 265.532 7.44C266.748 7.44 267.26 8.016 267.26 9.168C267.26 9.936 261.436 23.44 257.404 35.856C261.436 34.064 266.492 28.752 266.492 25.488C266.492 25.488 272.188 24.08 272.188 29.264C272.188 35.28 262.652 40.08 256.06 40.784V40.912C256.764 40.976 258.492 41.168 260.476 40.976C263.612 50.192 268.412 52.368 270.78 52.368C271.548 52.368 272.188 52.24 272.7 52.176Z" fill="#1E1E1E"/>
</g>
<defs>
<filter id="filter0_d_872_478" x="-3.569" y="0.399994" width="297.164" height="111.168" filterUnits="userSpaceOnUse" color-interpolation-filters="sRGB">
<feFlood flood-opacity="0" result="BackgroundImageFix"/>
<feColorMatrix in="SourceAlpha" type="matrix" values="0 0 0 0 0 0 0 0 0 0 0 0 0 0 0 0 0 0 127 0" result="hardAlpha"/>
<feOffset dy="20"/>
<feGaussianBlur stdDeviation="10"/>
<feComposite in2="hardAlpha" operator="out"/>
<feColorMatrix type="matrix" values="0 0 0 0 0.406615 0 0 0 0 0.394416 0 0 0 0 0.394416 0 0 0 0.14 0"/>
<feBlend mode="normal" in2="BackgroundImageFix" result="effect1_dropShadow_872_478"/>
<feBlend mode="normal" in="SourceGraphic" in2="effect1_dropShadow_872_478" result="shape"/>
</filter>
</defs>
</svg>
