<svg width="15" height="16" viewBox="0 0 15 16" fill="none" xmlns="http://www.w3.org/2000/svg">
<path fill-rule="evenodd" clip-rule="evenodd" d="M5.58493 1.01078C5.80269 0.698133 6.09006 0.443319 6.42314 0.267516C6.75623 0.0917131 7.12541 0 7.5 0C7.87459 0 8.24377 0.0917131 8.57686 0.267516C8.90994 0.443319 9.19731 0.698133 9.41507 1.01078L9.56413 1.22565C9.64528 1.34232 9.75534 1.43464 9.88292 1.49307C10.0105 1.5515 10.151 1.57392 10.2898 1.55801L10.9559 1.48156C11.3067 1.44157 11.6618 1.48303 11.9949 1.60288C12.328 1.72273 12.6305 1.91789 12.8801 2.17391C13.1297 2.42994 13.32 2.74028 13.4368 3.08195C13.5537 3.42361 13.5941 3.78786 13.5551 4.14772L13.4806 4.83177C13.4654 4.97394 13.4874 5.11771 13.5443 5.24827C13.6013 5.37882 13.6911 5.49145 13.8046 5.57456L14.0141 5.72746C14.319 5.95081 14.5676 6.24562 14.739 6.58737C14.9105 6.92911 15 7.30792 15 7.69228C15 8.07664 14.9105 8.45544 14.739 8.79719C14.5676 9.13893 14.319 9.43374 14.0141 9.65709L13.8046 9.81C13.6909 9.89324 13.6009 10.0061 13.5439 10.137C13.4869 10.2679 13.4651 10.412 13.4806 10.5544L13.5551 11.2376C13.5941 11.5975 13.5537 11.9617 13.4368 12.3034C13.32 12.6451 13.1297 12.9554 12.8801 13.2114C12.6305 13.4675 12.328 13.6626 11.9949 13.7825C11.6618 13.9023 11.3067 13.9438 10.9559 13.9038L10.2891 13.8273C10.1504 13.8117 10.0103 13.8343 9.88301 13.8927C9.75573 13.9511 9.64593 14.0433 9.56492 14.1597L9.41585 14.3746C9.19811 14.6874 8.91071 14.9423 8.57755 15.1182C8.24439 15.2942 7.8751 15.3859 7.50039 15.3859C7.12569 15.3859 6.7564 15.2942 6.42323 15.1182C6.09007 14.9423 5.80267 14.6874 5.58493 14.3746L5.43587 14.1597C5.35471 14.043 5.24466 13.9507 5.11708 13.8923C4.9895 13.8339 4.84902 13.8114 4.71016 13.8273L4.04409 13.9038C3.69326 13.9438 3.33817 13.9023 3.00508 13.7825C2.67199 13.6626 2.36945 13.4675 2.11986 13.2114C1.87026 12.9554 1.68 12.6451 1.56317 12.3034C1.44633 11.9617 1.40591 11.5975 1.4449 11.2376L1.51943 10.5536C1.53464 10.4114 1.51264 10.2676 1.45569 10.1371C1.39874 10.0065 1.3089 9.89391 1.19541 9.8108L0.985939 9.6579C0.680991 9.43455 0.432438 9.13974 0.260951 8.79799C0.0894639 8.45625 0 8.07744 0 7.69308C0 7.30872 0.0894639 6.92992 0.260951 6.58817C0.432438 6.24643 0.680991 5.95162 0.985939 5.72827L1.19541 5.57536C1.30915 5.49212 1.39915 5.37923 1.45611 5.24836C1.51307 5.11749 1.53493 4.9734 1.51943 4.83096L1.4449 4.14772C1.40591 3.78786 1.44633 3.42361 1.56317 3.08195C1.68 2.74028 1.87026 2.42994 2.11986 2.17391C2.36945 1.91789 2.67199 1.72273 3.00508 1.60288C3.33817 1.48303 3.69326 1.44157 4.04409 1.48156L4.71095 1.55801C4.84955 1.57362 4.98971 1.55105 5.11699 1.49264C5.24427 1.43422 5.35406 1.34206 5.43508 1.22565L5.58415 1.01078H5.58493ZM10.4083 5.5142C10.5554 5.66512 10.638 5.86977 10.638 6.08316C10.638 6.29656 10.5554 6.50121 10.4083 6.65213L7.41213 9.7255C7.0277 10.1198 6.40321 10.1198 6.01878 9.7255L4.59091 8.26164C4.51807 8.18687 4.4603 8.09812 4.4209 8.00045C4.3815 7.90277 4.36124 7.7981 4.36128 7.69239C4.36131 7.58669 4.38165 7.48203 4.42111 7.38439C4.46058 7.28674 4.51841 7.19803 4.59131 7.12331C4.6642 7.0486 4.75072 6.98934 4.84594 6.94892C4.94116 6.9085 5.04321 6.88772 5.14626 6.88776C5.2493 6.8878 5.35134 6.90865 5.44653 6.94914C5.54172 6.98962 5.6282 7.04895 5.70104 7.12372L6.71546 8.16427L9.29896 5.5142C9.44608 5.36333 9.6456 5.27858 9.85363 5.27858C10.0617 5.27858 10.2612 5.36333 10.4083 5.5142Z" fill="#FE9801"/>
</svg>
